<?xml version="1.0" ?><svg id="Layer_1" style="enable-background:new 0 0 128 128;" version="1.1" viewBox="0 0 128 128" xml:space="preserve" xmlns="http://www.w3.org/2000/svg" xmlns:xlink="http://www.w3.org/1999/xlink"><style type="text/css">
	.st0{fill:none;stroke:#1D1952;stroke-width:4;stroke-linecap:round;stroke-miterlimit:10;}
	.st1{fill:#F73959;}
	.st2{opacity:0.5;fill:#C02344;}
	.st3{fill:none;stroke:#FFFFFF;stroke-width:4;stroke-linecap:round;stroke-linejoin:round;stroke-miterlimit:10;}
	.st4{fill:#F95F80;}
	.st5{fill:#FFFFFF;}
	.st6{fill:#1D1952;}
	.st7{fill:#EF8FA9;}
	.st8{fill:none;stroke:#AAAAE5;stroke-width:4;stroke-linecap:round;stroke-miterlimit:10;}
	.st9{fill:#AAAAE5;}
	.st10{fill:#FFCE00;}
	.st11{fill:#8E072B;}
	.st12{opacity:0.5;fill:#F73959;}
	.st13{fill:none;stroke:#C02344;stroke-width:4;stroke-linecap:round;stroke-linejoin:round;stroke-miterlimit:10;}
	.st14{fill:none;stroke:#FFAA00;stroke-width:4;stroke-linecap:round;stroke-linejoin:round;stroke-miterlimit:10;}
	.st15{fill:#FFAA00;}
	.st16{fill:none;stroke:#FFFFFF;stroke-width:3;stroke-linecap:round;stroke-linejoin:round;stroke-miterlimit:10;}
	.st17{fill:none;stroke:#1D1952;stroke-width:3;stroke-linecap:round;stroke-miterlimit:10;}
	.st18{fill:none;stroke:#C02344;stroke-width:6;stroke-linecap:round;stroke-linejoin:round;stroke-miterlimit:10;}
	.st19{fill:none;stroke:#AAAAE5;stroke-width:4;stroke-linecap:round;stroke-linejoin:round;stroke-miterlimit:10;}
	.st20{fill:#E87498;}
	.st21{fill:none;stroke:#1D1952;stroke-width:4;stroke-miterlimit:10;}
	.st22{fill:none;stroke:#FFAA00;stroke-width:4;stroke-linecap:round;stroke-miterlimit:10;}
	.st23{fill:#7A61F7;}
	.st24{fill:none;stroke:#FFCE00;stroke-width:4;stroke-linecap:round;stroke-miterlimit:10;}
</style><g><polygon class="st15" points="116.4,60.2 124.7,75.9 105.7,72.7  "/><polygon class="st10" points="63,81.6 63,125 116.4,100.6 116.4,60.2  "/><polygon class="st15" points="13.5,66.9 63,81.6 63,125 13.5,109.5  "/><path class="st6" d="M56.5,101.6l6.5-20L13.5,66.9v24l38.2,13C53.7,104.7,55.9,103.6,56.5,101.6z"/><polygon class="st10" points="13.5,66.9 2.8,82.5 52.6,98.1 63,81.6  "/><polygon class="st15" points="13.5,66.9 69.7,45.1 116.4,60.2 63,81.6  "/><path class="st15" d="M97.2,79.3c-5.1,0.2-7.1,4.5-7.1,4.5s-3-2.6-7.7,0.4c-5.8,3.9-5.4,11.9,0.6,14.6c4.5,2.1,7.8,2.5,9,2.6   c0.4,0,0.8-0.1,1.2-0.4c1.1-0.9,4-3.3,7.5-8.1C105.4,86.7,103.6,79,97.2,79.3z"/><polygon class="st6" points="69.7,45.1 69.7,78.9 116.4,60.2  "/><g><path class="st1" d="M92.2,40.8c-7-4.6-12.7-0.2-12.7-0.2s-2.3-6.9-10.7-6.9c-10.6,0-15.4,12.5-9.3,22.3    c4.7,7.5,8.8,11.3,10.5,12.6c0.5,0.4,1.2,0.6,1.8,0.5c2.2-0.2,7.7-1,15.7-4.7C98.2,59.7,101,46.6,92.2,40.8z"/><path class="st16" d="M63.3,41c0.8-1,1.9-2,3.6-2.5"/><path class="st16" d="M82.3,44.2c0.2-0.2,1.5-0.9,3.2-1"/><path class="st2" d="M97.4,49.2c-1.3,4-4.5,7.6-9.1,9.7c-1.3,0.6-2.5,1.1-3.6,1.5c-8.1,3.2-17.3,0.4-22.3-6.7    c-0.7-1-1.4-2.1-2.2-3.3c-1.7-2.7-2.5-5.5-2.7-8.2c-1.3,4.2-0.8,9.3,2,13.8c4.7,7.5,8.8,11.3,10.5,12.6c0.5,0.4,1.2,0.6,1.8,0.5    c2.2-0.2,7.7-1,15.7-4.7C94.4,61.4,98,55,97.4,49.2z"/><path class="st6" d="M77.4,56.1c0.6,0.2,0.8,0.8,0.5,1.3c-0.8,1.1-2.3,2.8-4.4,2.2c-2.1-0.6-2.2-2.9-2-4.2    c0.1-0.5,0.6-0.9,1.1-0.7L77.4,56.1z"/><path class="st6" d="M80.1,54.7c0.6-1.8,2.5-2.9,4.3-2.3c1.8,0.6,2.9,2.5,2.3,4.3"/><path class="st6" d="M64.7,50.1c0.6-1.8,2.5-2.9,4.3-2.3c1.8,0.6,2.9,2.5,2.3,4.3"/></g><g><path class="st7" d="M51.2,3.2c-8.4,0.7-10.1,7.7-10.1,7.7s-6.1-4-12.6,1.2c-8.3,6.6-4.4,19.3,6.5,23.3c8.3,3,13.9,3.4,16.1,3.4    c0.7,0,1.3-0.2,1.8-0.7c1.6-1.5,5.4-5.6,9.4-13.4C67.6,14.4,61.7,2.4,51.2,3.2z"/><path class="st16" d="M28.6,21.4c0-1.3,0.3-2.8,1.3-4.2"/><path class="st16" d="M45.5,12c0.1-0.3,0.6-1.7,1.9-2.8"/><path class="st20" d="M60.5,6.7c1.4,3.9,1.2,8.8-1.1,13.3c-0.6,1.2-1.3,2.4-1.9,3.5c-4.4,7.5-13.3,11-21.6,8.5    c-1.2-0.4-2.4-0.8-3.7-1.2c-2.9-1.1-5.4-2.8-7.2-4.8c1.5,4.1,5.1,7.8,10.1,9.6c8.3,3,13.9,3.4,16.1,3.4c0.7,0,1.3-0.2,1.8-0.7    c1.6-1.5,5.4-5.6,9.4-13.4C65.7,18.1,64.5,10.8,60.5,6.7z"/><path class="st6" d="M49,24.4c0.5-0.2,1.1,0.2,1.2,0.7c0.1,1.4-0.1,3.6-2.1,4.4c-2.1,0.8-3.5-0.9-4.2-2.1    c-0.3-0.5-0.1-1.1,0.4-1.2L49,24.4z"/><path class="st6" d="M50.3,21.7c-0.7-1.8,0.2-3.8,2-4.5c1.8-0.7,3.8,0.2,4.5,2"/><path class="st6" d="M35.3,27.6c-0.7-1.8,0.2-3.8,2-4.5c1.8-0.7,3.8,0.2,4.5,2"/></g><path class="st1" d="M42.2,64.8c-6.7,1.1-8.8,6-9.3,7.8l23.4,6.9C56.8,70.9,50.7,63.5,42.2,64.8z"/><path class="st2" d="M49.2,65.9c3,3.2,3.9,7.8,2.7,12.4l4.4,1.3C56.6,73.6,53.8,68.2,49.2,65.9z"/></g></svg>